<svg width="218" height="211" viewBox="0 0 218 211" fill="none" xmlns="http://www.w3.org/2000/svg">
<g filter="url(#filter0_b_312_2)">
<path d="M215.512 108.392C211.88 124.796 210.409 138.446 209.229 149.674L209.163 150.301C208.013 161.252 207.115 169.807 204.718 176.391C202.294 183.05 198.343 187.672 190.992 190.654C183.594 193.654 172.74 195 156.5 195C139.754 195 121.506 199.205 104.28 203.174C100.872 203.959 97.504 204.735 94.1956 205.468C84.1626 207.689 74.6768 209.511 66.2437 209.998C57.8058 210.486 50.4809 209.633 44.7358 206.559C24.3563 195.654 15.9225 179.547 11.6429 161.951C9.50015 153.141 8.4012 143.966 7.36816 134.876C7.31223 134.383 7.25648 133.891 7.20077 133.4C6.22893 124.823 5.26793 116.342 3.48786 108.391C-3.74258 76.0948 8.91969 47.0351 30.319 27.3293C51.7277 7.61493 81.8355 -2.69318 109.408 2.49128C129.856 6.33632 160.028 16.5632 183.263 33.9785C206.487 51.3861 222.703 75.9053 215.512 108.392Z" fill="white" style="mix-blend-mode:multiply"/>
<path d="M215.512 108.392C211.88 124.796 210.409 138.446 209.229 149.674L209.163 150.301C208.013 161.252 207.115 169.807 204.718 176.391C202.294 183.05 198.343 187.672 190.992 190.654C183.594 193.654 172.74 195 156.5 195C139.754 195 121.506 199.205 104.28 203.174C100.872 203.959 97.504 204.735 94.1956 205.468C84.1626 207.689 74.6768 209.511 66.2437 209.998C57.8058 210.486 50.4809 209.633 44.7358 206.559C24.3563 195.654 15.9225 179.547 11.6429 161.951C9.50015 153.141 8.4012 143.966 7.36816 134.876C7.31223 134.383 7.25648 133.891 7.20077 133.4C6.22893 124.823 5.26793 116.342 3.48786 108.391C-3.74258 76.0948 8.91969 47.0351 30.319 27.3293C51.7277 7.61493 81.8355 -2.69318 109.408 2.49128C129.856 6.33632 160.028 16.5632 183.263 33.9785C206.487 51.3861 222.703 75.9053 215.512 108.392Z" stroke="#1E1E1E"/>
<path d="M178.384 107.256C176.019 117.97 175.062 126.884 174.294 134.212L174.254 134.601C173.504 141.764 172.921 147.327 171.37 151.603C169.808 155.906 167.272 158.882 162.54 160.807C157.763 162.752 150.732 163.63 140.173 163.63C129.26 163.63 117.367 166.38 106.164 168.97C103.949 169.482 101.761 169.987 99.6126 170.465C93.088 171.914 86.9304 173.1 81.4607 173.417C75.9863 173.734 71.2603 173.177 67.5653 171.193C54.3668 164.108 48.9043 153.649 46.1286 142.199C44.7378 136.463 44.024 130.486 43.3521 124.554C43.3156 124.232 43.2792 123.91 43.2429 123.589C42.6111 117.995 41.9851 112.452 40.8253 107.255C36.1383 86.2527 44.3438 67.3519 58.2245 54.5287C72.1146 41.6968 91.6421 34.9947 109.512 38.3656C122.794 40.8711 142.39 47.5358 157.474 58.8784C172.548 70.2133 183.041 86.1499 178.384 107.256Z" fill="white" style="mix-blend-mode:multiply"/>
<path d="M178.384 107.256C176.019 117.97 175.062 126.884 174.294 134.212L174.254 134.601C173.504 141.764 172.921 147.327 171.37 151.603C169.808 155.906 167.272 158.882 162.54 160.807C157.763 162.752 150.732 163.63 140.173 163.63C129.26 163.63 117.367 166.38 106.164 168.97C103.949 169.482 101.761 169.987 99.6126 170.465C93.088 171.914 86.9304 173.1 81.4607 173.417C75.9863 173.734 71.2603 173.177 67.5653 171.193C54.3668 164.108 48.9043 153.649 46.1286 142.199C44.7378 136.463 44.024 130.486 43.3521 124.554C43.3156 124.232 43.2792 123.91 43.2429 123.589C42.6111 117.995 41.9851 112.452 40.8253 107.255C36.1383 86.2527 44.3438 67.3519 58.2245 54.5287C72.1146 41.6968 91.6421 34.9947 109.512 38.3656C122.794 40.8711 142.39 47.5358 157.474 58.8784C172.548 70.2133 183.041 86.1499 178.384 107.256Z" stroke="#1E1E1E"/>
<path d="M147.88 106.44C146.552 112.475 146.015 117.495 145.585 121.615L145.564 121.808C145.142 125.856 144.818 128.96 143.958 131.338C143.102 133.703 141.723 135.326 139.134 136.383C136.499 137.458 132.597 137.953 126.686 137.953C120.543 137.953 113.85 139.505 107.573 140.961C106.334 141.248 105.111 141.532 103.912 141.799C100.258 142.613 96.8227 143.276 93.7772 143.454C90.7271 143.631 88.1272 143.317 86.1092 142.23C78.7852 138.286 75.7532 132.47 74.2078 126.075C73.4322 122.866 73.0335 119.52 72.6569 116.185C72.6363 116.003 72.6158 115.821 72.5953 115.639C72.2417 112.498 71.8898 109.372 71.2373 106.439C68.6309 94.7231 73.1908 84.1759 80.921 77.0122C88.6604 69.8399 99.5327 66.1031 109.466 67.9827C116.884 69.3865 127.829 73.1221 136.246 79.4712C144.653 85.8124 150.464 94.6915 147.88 106.44Z" fill="white" style="mix-blend-mode:multiply"/>
<path d="M147.88 106.44C146.552 112.475 146.015 117.495 145.585 121.615L145.564 121.808C145.142 125.856 144.818 128.96 143.958 131.338C143.102 133.703 141.723 135.326 139.134 136.383C136.499 137.458 132.597 137.953 126.686 137.953C120.543 137.953 113.85 139.505 107.573 140.961C106.334 141.248 105.111 141.532 103.912 141.799C100.258 142.613 96.8227 143.276 93.7772 143.454C90.7271 143.631 88.1272 143.317 86.1092 142.23C78.7852 138.286 75.7532 132.47 74.2078 126.075C73.4322 122.866 73.0335 119.52 72.6569 116.185C72.6363 116.003 72.6158 115.821 72.5953 115.639C72.2417 112.498 71.8898 109.372 71.2373 106.439C68.6309 94.7231 73.1908 84.1759 80.921 77.0122C88.6604 69.8399 99.5327 66.1031 109.466 67.9827C116.884 69.3865 127.829 73.1221 136.246 79.4712C144.653 85.8124 150.464 94.6915 147.88 106.44Z" stroke="#1E1E1E"/>
</g>
<defs>
<filter id="filter0_b_312_2" x="-9.05615" y="-9.34009" width="236.791" height="229.966" filterUnits="userSpaceOnUse" color-interpolation-filters="sRGB">
<feFlood flood-opacity="0" result="BackgroundImageFix"/>
<feGaussianBlur in="BackgroundImageFix" stdDeviation="5"/>
<feComposite in2="SourceAlpha" operator="in" result="effect1_backgroundBlur_312_2"/>
<feBlend mode="normal" in="SourceGraphic" in2="effect1_backgroundBlur_312_2" result="shape"/>
</filter>
</defs>
</svg>
