<svg width="880" height="902" viewBox="0 0 880 902" fill="none" xmlns="http://www.w3.org/2000/svg">
<path d="M527.579 805.189C470.26 807.709 423.937 814.92 385.814 820.959L383.554 821.317C346.484 827.192 317.308 831.816 293.289 829.712C268.838 827.571 249.754 818.46 233.179 796.526C216.573 774.553 202.476 739.7 188.098 686.042C173.318 630.881 143.363 574.483 115.01 521.102C109.396 510.532 103.845 500.081 98.4864 489.78C82.2687 458.605 67.8183 428.815 58.713 401.295C49.6063 373.771 45.8661 348.574 51.0086 326.564C69.0894 249.177 115.114 206.825 169.646 177.008C196.922 162.093 226.32 150.319 255.421 138.865C256.991 138.247 258.56 137.63 260.128 137.013C287.612 126.207 314.715 115.55 339.34 102.666C440.052 49.9717 547.693 66.1705 632.01 119.595C716.337 173.027 777.278 263.661 784.589 359.747C789.995 430.811 782.915 539.705 745.872 632.071C708.833 724.425 641.887 800.163 527.579 805.189Z" stroke="#654D40"/>
<path d="M498.474 681.563C461.07 683.233 430.84 687.949 405.967 691.898L404.511 692.129C380.309 695.973 361.292 698.993 345.646 697.639C329.741 696.263 317.344 690.367 306.574 676.15C295.775 661.893 286.604 639.255 277.254 604.36C267.635 568.462 248.111 531.767 229.643 497.056C225.987 490.184 222.373 483.39 218.884 476.695C208.321 456.424 198.916 437.063 192.995 419.179C187.073 401.292 184.657 384.938 188.013 370.663C199.833 320.373 229.837 292.832 265.397 273.422C283.188 263.711 302.362 256.04 321.353 248.574C322.378 248.17 323.403 247.768 324.427 247.366C342.359 240.322 360.054 233.372 376.132 224.973C441.795 190.674 511.94 201.143 566.873 235.826C621.816 270.517 661.487 329.4 666.201 391.839C669.689 438.048 665.014 508.863 640.814 568.938C616.618 629.001 572.953 678.238 498.474 681.563Z" stroke="#654D40"/>
<path d="M474.176 580.096C453.144 581.049 436.144 583.707 422.164 585.931L421.37 586.057C407.748 588.225 397.083 589.922 388.319 589.173C379.438 588.414 372.533 585.143 366.529 577.234C360.494 569.285 355.359 556.638 350.122 537.092C344.725 516.952 333.756 496.369 323.394 476.926C321.343 473.078 319.316 469.275 317.361 465.529C311.435 454.174 306.166 443.342 302.853 433.341C299.538 423.336 298.201 414.218 300.08 406.275C306.725 378.165 323.544 362.762 343.498 351.889C353.486 346.446 364.252 342.143 374.927 337.95C375.505 337.724 376.082 337.497 376.659 337.271C386.735 333.317 396.692 329.41 405.741 324.691C442.574 305.483 481.902 311.302 512.701 330.68C543.51 350.066 565.729 382.987 568.345 417.896C570.283 443.767 567.626 483.418 554.017 517.055C540.413 550.679 515.912 578.205 474.176 580.096Z" stroke="#654D40"/>
</svg>
