<svg width="40" height="40" viewBox="0 0 40 40" fill="none" xmlns="http://www.w3.org/2000/svg">
<path fill-rule="evenodd" clip-rule="evenodd" d="M23 38C31.2843 38 38 31.2843 38 23C38 14.7157 31.2843 8 23 8C14.7157 8 8 14.7157 8 23C8 31.2843 14.7157 38 23 38ZM23 40C32.3888 40 40 32.3888 40 23C40 13.6112 32.3888 6 23 6C13.6112 6 6 13.6112 6 23C6 32.3888 13.6112 40 23 40Z" fill="#143D3D"/>
<path fill-rule="evenodd" clip-rule="evenodd" d="M23 14C23.5523 14 24 14.4477 24 15V22H31C31.5523 22 32 22.4477 32 23C32 23.5523 31.5523 24 31 24H23C22.4477 24 22 23.5523 22 23V15C22 14.4477 22.4477 14 23 14Z" fill="#143D3D"/>
<path fill-rule="evenodd" clip-rule="evenodd" d="M2 29C2 28.4477 2.44772 28 3 28H15C15.5523 28 16 28.4477 16 29C16 29.5523 15.5523 30 15 30H3C2.44772 30 2 29.5523 2 29Z" fill="#143D3D"/>
<path fill-rule="evenodd" clip-rule="evenodd" d="M2 17C2 16.4477 2.44772 16 3 16H15C15.5523 16 16 16.4477 16 17C16 17.5523 15.5523 18 15 18H3C2.44772 18 2 17.5523 2 17Z" fill="#143D3D"/>
<path fill-rule="evenodd" clip-rule="evenodd" d="M0 23C-4.18446e-08 22.4477 0.447715 22 1 22L13 22C13.5523 22 14 22.4477 14 23C14 23.5523 13.5523 24 13 24L1 24C0.447715 24 4.18446e-08 23.5523 0 23Z" fill="#143D3D"/>
<path fill-rule="evenodd" clip-rule="evenodd" d="M23 0C23.5523 -2.41411e-08 24 0.447715 24 1V6C24 6.55228 23.5523 7 23 7C22.4477 7 22 6.55228 22 6V1C22 0.447715 22.4477 2.41411e-08 23 0Z" fill="#143D3D"/>
<path fill-rule="evenodd" clip-rule="evenodd" d="M28 1C28 1.55228 27.5523 2 27 2H19C18.4477 2 18 1.55228 18 1C18 0.447715 18.4477 0 19 0H27C27.5523 0 28 0.447715 28 1Z" fill="#143D3D"/>
</svg>
